<?xml version="1.0" standalone="no"?>
<!DOCTYPE svg PUBLIC "-//W3C//DTD SVG 20010904//EN"
 "http://www.w3.org/TR/2001/REC-SVG-20010904/DTD/svg10.dtd">
<svg version="1.0" xmlns="http://www.w3.org/2000/svg"
 width="256.000000pt" height="256.000000pt" viewBox="0 0 256.000000 256.000000"
 preserveAspectRatio="xMidYMid meet">
<metadata>
Created by potrace 1.16, written by Peter Selinger 2001-2019
</metadata>
<g transform="translate(0.000000,256.000000) scale(0.100000,-0.100000)"
fill="#000000" stroke="none">
<path d="M0 1280 l0 -1280 1280 0 1280 0 0 1280 0 1280 -1280 0 -1280 0 0
-1280z m1630 550 l0 -70 300 0 c220 0 300 -3 300 -12 0 -22 -53 -80 -104 -112
-68 -44 -160 -79 -283 -110 -202 -50 -293 -121 -293 -231 0 -91 85 -203 233
-309 l66 -47 36 -115 c20 -63 38 -121 42 -129 4 -13 -53 -15 -433 -15 l-437 0
23 25 c58 61 248 174 365 216 l50 18 -72 0 c-217 2 -466 -76 -627 -198 -79
-60 -77 -68 -25 101 l30 97 62 44 c79 57 188 170 216 224 48 96 16 189 -81
237 -94 46 -274 76 -449 76 l-69 0 0 93 0 93 -75 88 c-41 47 -77 91 -80 96 -4
7 229 10 649 10 l656 0 0 -70z"/>
</g>
</svg>